<?xml version="1.0" encoding="UTF-8"?><svg xmlns="http://www.w3.org/2000/svg" xmlns:xlink="http://www.w3.org/1999/xlink" fill-opacity="1" color-rendering="auto" color-interpolation="auto" text-rendering="auto" stroke="black" stroke-linecap="square" width="548" stroke-miterlimit="10" shape-rendering="auto" stroke-opacity="1" fill="black" stroke-dasharray="none" font-weight="normal" stroke-width="1" height="295" font-family="'Dialog'" font-style="normal" stroke-linejoin="miter" font-size="12" stroke-dashoffset="0" image-rendering="auto">
  <!--Generated by ySVG 2.5-->
  <defs id="genericDefs"/>
  <g>
    <defs id="defs1">
      <clipPath clipPathUnits="userSpaceOnUse" id="clipPath1">
        <path d="M0 0 L548 0 L548 295 L0 295 L0 0 Z"/>
      </clipPath>
      <clipPath clipPathUnits="userSpaceOnUse" id="clipPath2">
        <path d="M320 152 L868 152 L868 447 L320 447 L320 152 Z"/>
      </clipPath>
      <clipPath clipPathUnits="userSpaceOnUse" id="clipPath3">
        <path d="M117.3467 -18 L117.3467 530 L-177.6533 530 L-177.6533 -18 L117.3467 -18 Z"/>
      </clipPath>
      <clipPath clipPathUnits="userSpaceOnUse" id="clipPath4">
        <path d="M241.6875 -18 L241.6875 530 L-53.3125 530 L-53.3125 -18 L241.6875 -18 Z"/>
      </clipPath>
      <clipPath clipPathUnits="userSpaceOnUse" id="clipPath5">
        <path d="M147.8467 -198 L147.8467 350 L-147.1533 350 L-147.1533 -198 L147.8467 -198 Z"/>
      </clipPath>
      <clipPath clipPathUnits="userSpaceOnUse" id="clipPath6">
        <path d="M198.3447 -198 L198.3447 350 L-96.6553 350 L-96.6553 -198 L198.3447 -198 Z"/>
      </clipPath>
      <clipPath clipPathUnits="userSpaceOnUse" id="clipPath7">
        <path d="M272.3467 -198 L272.3467 350 L-22.6533 350 L-22.6533 -198 L272.3467 -198 Z"/>
      </clipPath>
      <clipPath clipPathUnits="userSpaceOnUse" id="clipPath8">
        <path d="M115.8467 -385 L115.8467 163 L-179.1533 163 L-179.1533 -385 L115.8467 -385 Z"/>
      </clipPath>
      <clipPath clipPathUnits="userSpaceOnUse" id="clipPath9">
        <path d="M187.8467 -385 L187.8467 163 L-107.1533 163 L-107.1533 -385 L187.8467 -385 Z"/>
      </clipPath>
      <clipPath clipPathUnits="userSpaceOnUse" id="clipPath10">
        <path d="M262.8467 -385 L262.8467 163 L-32.1533 163 L-32.1533 -385 L262.8467 -385 Z"/>
      </clipPath>
    </defs>
    <g fill="white" text-rendering="geometricPrecision" shape-rendering="geometricPrecision" transform="translate(-320,-152)" stroke="white">
      <rect x="320" width="548" height="295" y="152" clip-path="url(#clipPath2)" stroke="none"/>
    </g>
    <g fill="rgb(236,245,255)" text-rendering="geometricPrecision" shape-rendering="geometricPrecision" transform="matrix(1,0,0,1,-320,-152)" stroke="rgb(236,245,255)">
      <path d="M335 167 L335 197 L485 197 L485 167 Z" stroke="none" clip-path="url(#clipPath2)"/>
      <rect x="335" width="150" height="235" y="197" clip-path="url(#clipPath2)" stroke="none"/>
      <line clip-path="url(#clipPath2)" fill="rgb(113,146,178)" x1="359" x2="485" y1="197" y2="197" stroke="none"/>
      <rect x="335" y="197" clip-path="url(#clipPath2)" fill="rgb(196,215,237)" width="24" height="88" stroke="none"/>
      <rect x="359" y="197" clip-path="url(#clipPath2)" fill="rgb(196,215,237)" width="126" height="88" stroke="none"/>
      <rect x="335" y="285" clip-path="url(#clipPath2)" fill="rgb(171,200,226)" width="24" height="147" stroke="none"/>
      <rect x="359" y="285" clip-path="url(#clipPath2)" fill="rgb(171,200,226)" width="126" height="147" stroke="none"/>
    </g>
    <g text-rendering="geometricPrecision" stroke-miterlimit="1.45" shape-rendering="geometricPrecision" transform="matrix(1,0,0,1,-320,-152)" stroke-linecap="butt">
      <rect fill="none" x="335" width="150" height="265" y="167" clip-path="url(#clipPath2)"/>
      <rect fill="none" x="359" width="126" height="235" y="197" clip-path="url(#clipPath2)"/>
      <rect fill="none" x="335" width="150" height="88" y="197" clip-path="url(#clipPath2)"/>
      <rect fill="none" x="335" width="150" height="147" y="285" clip-path="url(#clipPath2)"/>
    </g>
    <g font-size="15" stroke-linecap="butt" transform="matrix(1,0,0,1,-320,-152)" text-rendering="geometricPrecision" font-family="sans-serif" shape-rendering="geometricPrecision" stroke-miterlimit="1.45">
      <text x="359.5728" xml:space="preserve" y="188.0806" clip-path="url(#clipPath2)" stroke="none">Primary source</text>
    </g>
    <g text-rendering="geometricPrecision" stroke-miterlimit="1.45" shape-rendering="geometricPrecision" font-family="sans-serif" transform="matrix(-0,-1,1,-0,18,117.3467)" stroke-linecap="butt">
      <text x="2" xml:space="preserve" y="14.0645" clip-path="url(#clipPath3)" stroke="none">Industry 1</text>
    </g>
    <g text-rendering="geometricPrecision" stroke-miterlimit="1.45" shape-rendering="geometricPrecision" font-family="sans-serif" transform="matrix(-0,-1,1,-0,18,241.6875)" stroke-linecap="butt">
      <text x="2" xml:space="preserve" y="14.0645" clip-path="url(#clipPath4)" stroke="none">Industry 2+3</text>
    </g>
    <g fill="rgb(236,245,255)" text-rendering="geometricPrecision" shape-rendering="geometricPrecision" transform="matrix(1,0,0,1,-320,-152)" stroke="rgb(236,245,255)">
      <path d="M515 203 L515 233 L672 233 L672 203 Z" stroke="none" clip-path="url(#clipPath2)"/>
      <rect x="515" width="157" height="199" y="233" clip-path="url(#clipPath2)" stroke="none"/>
      <line clip-path="url(#clipPath2)" fill="rgb(113,146,178)" x1="539" x2="672" y1="233" y2="233" stroke="none"/>
      <rect x="515" y="233" clip-path="url(#clipPath2)" fill="rgb(196,215,237)" width="24" height="77" stroke="none"/>
      <rect x="539" y="233" clip-path="url(#clipPath2)" fill="rgb(196,215,237)" width="133" height="77" stroke="none"/>
      <rect x="515" y="310" clip-path="url(#clipPath2)" fill="rgb(171,200,226)" width="24" height="50" stroke="none"/>
      <rect x="539" y="310" clip-path="url(#clipPath2)" fill="rgb(171,200,226)" width="133" height="50" stroke="none"/>
      <rect x="515" y="360" clip-path="url(#clipPath2)" fill="rgb(196,215,237)" width="24" height="72" stroke="none"/>
      <rect x="539" y="360" clip-path="url(#clipPath2)" fill="rgb(196,215,237)" width="133" height="72" stroke="none"/>
    </g>
    <g text-rendering="geometricPrecision" stroke-miterlimit="1.45" shape-rendering="geometricPrecision" transform="matrix(1,0,0,1,-320,-152)" stroke-linecap="butt">
      <rect fill="none" x="515" width="157" height="229" y="203" clip-path="url(#clipPath2)"/>
      <rect fill="none" x="539" width="133" height="199" y="233" clip-path="url(#clipPath2)"/>
      <rect fill="none" x="515" width="157" height="77" y="233" clip-path="url(#clipPath2)"/>
      <rect fill="none" x="515" width="157" height="50" y="310" clip-path="url(#clipPath2)"/>
      <rect fill="none" x="515" width="157" height="72" y="360" clip-path="url(#clipPath2)"/>
    </g>
    <g font-size="15" stroke-linecap="butt" transform="matrix(1,0,0,1,-320,-152)" text-rendering="geometricPrecision" font-family="sans-serif" shape-rendering="geometricPrecision" stroke-miterlimit="1.45">
      <text x="533.0496" xml:space="preserve" y="224.0806" clip-path="url(#clipPath2)" stroke="none">Secondary source</text>
    </g>
    <g text-rendering="geometricPrecision" stroke-miterlimit="1.45" shape-rendering="geometricPrecision" font-family="sans-serif" transform="matrix(-0,-1,1,-0,198,147.8467)" stroke-linecap="butt">
      <text x="2" xml:space="preserve" y="14.0645" clip-path="url(#clipPath5)" stroke="none">Industry 1</text>
    </g>
    <g text-rendering="geometricPrecision" stroke-miterlimit="1.45" shape-rendering="geometricPrecision" font-family="sans-serif" transform="matrix(-0,-1,1,-0,198,198.3447)" stroke-linecap="butt">
      <text x="2" xml:space="preserve" y="14.0645" clip-path="url(#clipPath6)" stroke="none">Ind 2</text>
    </g>
    <g text-rendering="geometricPrecision" stroke-miterlimit="1.45" shape-rendering="geometricPrecision" font-family="sans-serif" transform="matrix(-0,-1,1,-0,198,272.3467)" stroke-linecap="butt">
      <text x="2" xml:space="preserve" y="14.0645" clip-path="url(#clipPath7)" stroke="none">Industry 3</text>
    </g>
    <g fill="rgb(236,245,255)" text-rendering="geometricPrecision" shape-rendering="geometricPrecision" transform="matrix(1,0,0,1,-320,-152)" stroke="rgb(236,245,255)">
      <path d="M702 167 L702 197 L853 197 L853 167 Z" stroke="none" clip-path="url(#clipPath2)"/>
      <rect x="702" width="151" height="235" y="197" clip-path="url(#clipPath2)" stroke="none"/>
      <line clip-path="url(#clipPath2)" fill="rgb(113,146,178)" x1="726" x2="853" y1="197" y2="197" stroke="none"/>
      <rect x="702" y="197" clip-path="url(#clipPath2)" fill="rgb(196,215,237)" width="24" height="85" stroke="none"/>
      <rect x="726" y="197" clip-path="url(#clipPath2)" fill="rgb(196,215,237)" width="127" height="85" stroke="none"/>
      <rect x="702" y="282" clip-path="url(#clipPath2)" fill="rgb(171,200,226)" width="24" height="59" stroke="none"/>
      <rect x="726" y="282" clip-path="url(#clipPath2)" fill="rgb(171,200,226)" width="127" height="59" stroke="none"/>
      <rect x="702" y="341" clip-path="url(#clipPath2)" fill="rgb(196,215,237)" width="24" height="91" stroke="none"/>
      <rect x="726" y="341" clip-path="url(#clipPath2)" fill="rgb(196,215,237)" width="127" height="91" stroke="none"/>
    </g>
    <g text-rendering="geometricPrecision" stroke-miterlimit="1.45" shape-rendering="geometricPrecision" transform="matrix(1,0,0,1,-320,-152)" stroke-linecap="butt">
      <rect fill="none" x="702" width="151" height="265" y="167" clip-path="url(#clipPath2)"/>
      <rect fill="none" x="726" width="127" height="235" y="197" clip-path="url(#clipPath2)"/>
      <rect fill="none" x="702" width="151" height="85" y="197" clip-path="url(#clipPath2)"/>
      <rect fill="none" x="702" width="151" height="59" y="282" clip-path="url(#clipPath2)"/>
      <rect fill="none" x="702" width="151" height="91" y="341" clip-path="url(#clipPath2)"/>
    </g>
    <g font-size="15" stroke-linecap="butt" transform="matrix(1,0,0,1,-320,-152)" text-rendering="geometricPrecision" font-family="sans-serif" shape-rendering="geometricPrecision" stroke-miterlimit="1.45">
      <text x="718.313" xml:space="preserve" y="188.0806" clip-path="url(#clipPath2)" stroke="none">Estimation results</text>
    </g>
    <g text-rendering="geometricPrecision" stroke-miterlimit="1.45" shape-rendering="geometricPrecision" font-family="sans-serif" transform="matrix(-0,-1,1,-0,385,115.8467)" stroke-linecap="butt">
      <text x="2" xml:space="preserve" y="14.0645" clip-path="url(#clipPath8)" stroke="none">Industry 1</text>
    </g>
    <g text-rendering="geometricPrecision" stroke-miterlimit="1.45" shape-rendering="geometricPrecision" font-family="sans-serif" transform="matrix(-0,-1,1,-0,385,187.8467)" stroke-linecap="butt">
      <text x="2" xml:space="preserve" y="14.0645" clip-path="url(#clipPath9)" stroke="none">Industry 2</text>
    </g>
    <g text-rendering="geometricPrecision" stroke-miterlimit="1.45" shape-rendering="geometricPrecision" font-family="sans-serif" transform="matrix(-0,-1,1,-0,385,262.8467)" stroke-linecap="butt">
      <text x="2" xml:space="preserve" y="14.0645" clip-path="url(#clipPath10)" stroke="none">Industry 3</text>
    </g>
  </g>
</svg>
